<?xml version="1.0" encoding="utf-8"?>
<!-- Generator: Adobe Illustrator 16.0.0, SVG Export Plug-In . SVG Version: 6.00 Build 0)  -->
<!DOCTYPE svg PUBLIC "-//W3C//DTD SVG 1.1//EN" "http://www.w3.org/Graphics/SVG/1.1/DTD/svg11.dtd">
<svg version="1.1" xmlns="http://www.w3.org/2000/svg" xmlns:xlink="http://www.w3.org/1999/xlink" x="0px" y="0px" width="1200px"
	 height="1200px" viewBox="0 0 1200 1200" enable-background="new 0 0 1200 1200" xml:space="preserve">
<g id="Layer_2" display="none">
	<rect display="inline" fill="#0B1B26" width="1200" height="1200"/>
</g>
<g id="Layer_1">
	<g>
		<path fill="#DF8D26" d="M372.12,621.373c0,9.194-2.396,16.425-7.184,21.693c-4.981,5.554-12.021,8.332-21.119,8.332
			c-4.406,0-7.232-0.624-8.476-1.867c-0.48-0.574-0.983-2.107-1.508-4.598c-0.528-2.491-1.749-4.503-3.664-6.033l0.144-0.719
			c0-2.683-1.199-6.655-3.591-11.924c2.967,0.287,4.548,0.431,4.741,0.431c8.333,0,12.499-4.404,12.499-13.217v-64.218h28.158
			V621.373z"/>
		<path fill="#DF8D26" d="M479.518,637.515h-29.257l-4.259-12.554h-30.938l-4.147,12.554h-29.48l33.179-84.182h31.723
			L479.518,637.515z M440.845,609.043l-10.424-32.955l-10.313,32.955H440.845z"/>
		<path fill="#DF8D26" d="M570.313,630.789c-10.689,5.532-22.57,8.295-35.647,8.295c-13.675,0-24.884-3.771-33.627-11.32
			c-9.191-7.921-13.787-18.609-13.787-32.06c0-13.675,4.708-24.548,14.124-32.619c8.893-7.547,20.326-11.321,34.3-11.321
			c6.874,0,13.188,1.457,18.944,4.372c6.126,3.138,10.834,7.585,14.123,13.338l-13.003,10.649
			c-5.904-4.557-12.033-6.838-18.383-6.838c-6.353,0-11.397,2.205-15.132,6.614c-3.514,4.11-5.269,9.378-5.269,15.805
			c0,6.577,1.774,11.882,5.324,15.917s8.576,6.053,15.077,6.053c2.315,0,3.773-0.297,4.372-0.896
			c1.046-1.194,2.055-2.017,3.027-2.465v-7.287H533.77v-17.374h36.543V630.789z"/>
		<path fill="#DF8D26" d="M667.719,602.766c0,12.183-3.85,21.374-11.545,27.575c-7.1,5.756-16.889,8.632-29.369,8.632
			c-12.479,0-22.344-2.69-29.592-8.071c-8.07-6.126-12.105-15.206-12.105-27.238v-50.33h29.256v47.976
			c0,3.961,1.064,7.174,3.195,9.641c2.129,2.465,5.135,3.698,9.021,3.698c4.037,0,7.1-1.419,9.191-4.259
			c1.943-2.539,2.916-5.902,2.916-10.088v-46.968h29.031V602.766z"/>
		<path fill="#DF8D26" d="M774.99,637.515h-29.256l-4.258-12.554h-30.939l-4.146,12.554h-29.48l33.178-84.182h31.723L774.99,637.515
			z M736.318,609.043l-10.424-32.955l-10.313,32.955H736.318z"/>
		<path fill="#DF8D26" d="M872.42,637.32h-31.498c-5.381-10.984-8.146-16.589-8.295-16.813c-4.932-9.191-8.594-13.824-10.984-13.899
			l-6.055-3.25v33.963h-29.143v-84.182h45.957c8.969,0,16.143,1.794,21.523,5.38c6.35,4.187,9.527,10.501,9.527,18.945
			c0,10.015-5.232,16.89-15.693,20.624c2.391,1.271,6.986,7.773,13.789,19.504C865.135,624.168,868.758,630.746,872.42,637.32z
			 M834.98,579.368c0-6.649-4.186-9.976-12.555-9.976h-6.838v20.177h6.727c3.588,0,6.5-0.784,8.742-2.354
			C833.672,585.422,834.98,582.807,834.98,579.368z"/>
	</g>
	
		<text transform="matrix(1 0 0 1 446.4058 683.2754)" fill="#0A5796" font-family="'HeadlineNEWS'" font-size="42" letter-spacing="13">REALTOR</text>
	<g>
		<g>
			<polygon fill="#2169B3" points="670.875,537.984 648.885,537.984 604.441,493.542 560,537.984 538.012,537.984 604.441,471.555 
							"/>
			<polygon fill="#2169B3" points="626.209,537.841 604.441,516.074 582.678,537.841 			"/>
			<polygon fill="#0A5796" points="576.307,490.699 565.321,501.692 557.169,493.54 512.721,537.987 490.731,537.987 
				557.169,471.551 			"/>
			<polygon fill="#0A5796" points="632.207,490.699 643.193,501.692 651.346,493.54 695.795,537.987 717.783,537.987 
				651.346,471.551 			"/>
		</g>
		<polygon fill="#0A5796" points="490.978,490.549 490.978,499.376 499.912,499.376 499.912,529.658 531.249,499.376 
			541.309,490.549 		"/>
	</g>
</g>
</svg>
